<svg version="1.2" xmlns="http://www.w3.org/2000/svg" viewBox="0 0 1920 1920" width="1920" height="1920"><style>.a{fill:#8c4e59;stroke:#8c4e59;stroke-width:.5}.b{fill:#ffbda3;stroke:#ffbda3;stroke-width:.5}.c{fill:#6e3842;stroke:#6e3842;stroke-width:.5}.d{fill:#2d3e50;stroke:#2d3e50;stroke-width:.5}.e{fill:#ff9386;stroke:#ff9386;stroke-width:.5}.f{fill:#266a99;stroke:#266a99;stroke-width:.5}.g{fill:#3598db;stroke:#3598db;stroke-width:.5}.h{fill:#d13f4a;stroke:#d13f4a;stroke-width:.5}</style><path class="a" d="m954.5 319.9c-12.5-0.5-25.1 0-37.6-0.2-14.7 0.1-29.4-0.3-44.1 0.2-13 3-25.8 6.7-38.8 9.9-10.5 2.9-21.4 5-31.7 8.9-17.8 6.3-35.7 12.6-53.6 18.8-1.4 0.5-2.7 1.4-3.8 2.5-9.6 9.9-19.2 20-28.9 29.9-3.7 3.8-5.7 8.8-8.4 13.3-13.1 23.4-26.7 46.5-39.1 70.4-7.6 14.4-15.2 28.8-22.8 43.2-1.4 2.4-1.1 5.3-1.1 7.9 0.2 12.8-0.2 25.5 0.2 38.3 6.2-11.2 11.5-22.9 17.4-34.3 2.8-5.2 4.7-11.1 8.8-15.5 4.2-4.7 8.2-9.6 12.5-14.1 18.5 1.8 36.9 4.3 55.4 6.1 16 0.8 31.8 2.3 47.8 3.4 11.2 1.1 22.4 0.9 33.6 0.3 11-0.5 22 0.3 32.9-0.9 16.9-4.4 33.7-9.1 50.5-13.6 4.1-0.9 8.3-3.1 12.4-1.5 12.5 3.8 25.1 7.5 37.7 11.3 6.2 1.7 12.2 4 18.6 4.8 15 1.9 29.9 4.1 44.9 6 2.2 0 3.1 2.2 4.2 3.7 5.4 8.8 10.9 17.5 16.5 26.1 1.1 1.8 2.5 3.6 3.2 5.6 0.6 3.2 0.2 6.4 0.3 9.6 0 12.7-0.1 25.4 0 38 0 2 0.2 4.2-1.5 5.5-12.9 12.8-25.6 25.7-38.5 38.4-3 3-4.7 6.9-6.7 10.5-5.9 10.9-11.8 21.7-17.6 32.5 9.5 7.3 19.5 13.8 29.1 20.9 3.3 2.4 6.9 4.4 10 7.1 1.9 2.3 2.5 5.4 3.7 8.1 3.3 8.7 6.8 17.4 10.1 26.1 1.5 3.9 3.5 7.7 3.3 11.9-0.1 15.1 0 30.2 0 45.3-0.2 3.2 1.8 5.9 3.4 8.5 4.4 7.2 8.3 14.8 13 21.9 5.7-10.4 10.7-21.1 16.1-31.6 2.3-4.3 3.9-9.1 7.2-12.7 7.1-7.7 14.3-15.3 21.2-23.1 1.9-2.2 4.3-3.7 6.9-4.9 12-6 23.8-12.5 35.9-18.3 7.9-2.5 16.1-3.9 24.2-5.8 2.4-0.8 4.1 1.7 5.8 3 6.7 6.8 14 13 20.6 20 5.9 11.4 10.9 23.4 16.5 34.9 0.3-17.2 0-34.4 0.1-51.6 0.4-6.5 1.9-12.8 2.6-19.1 2.2-14.2 3.9-28.4 6.7-42.5 2.9-16.8 6.4-33.5 9.1-50.3-0.4-1.6-0.9-3.2-0.9-4.8 0.1-16.9 0.1-33.8-0.1-50.7 0-2 0.5-3.9 1-5.7-2.6-15.7-6.2-31.2-9.1-46.8-0.8-4.7-2.6-9.2-4.3-13.7-5.7-15.1-11.4-30.3-17-45.5-1.1-3.4-2.5-6.8-5-9.5-27.4-30.7-57-59.3-86-88.5-2.6-2.6-5-5.7-8.6-6.8-20.6-7.6-41-15.8-61.7-23.4-25.4-6-51-11.7-76.5-17.4z"/><path class="b" d="m916.1 492.9c-4.1-1.6-8.3 0.6-12.4 1.5-16.8 4.5-33.6 9.2-50.5 13.6-10.9 1.2-21.9 0.4-32.9 0.9-11.2 0.6-22.4 0.8-33.6-0.3-16-1.1-31.8-2.6-47.8-3.4-18.5-1.8-36.9-4.3-55.4-6.1-4.3 4.5-8.3 9.4-12.5 14.1-4.1 4.4-6 10.3-8.8 15.5-5.9 11.4-11.2 23.1-17.4 34.3-6.2 14.2-12.4 28.5-18.7 42.7-2.2 5.2-2 10.9-2.7 16.4-1.1 8.8-1.8 17.7-2.9 26.6-0.8 6.4-0.6 13-3 19-3.2 8.6-6.3 17.3-9.4 25.9-1.4 3.9-3.4 7.8-3.4 12 0 7 0.1 13.9 0 20.9-0.1 5.1 2.1 9.8 3.6 14.6 2.3 7 4.5 14 6.8 21.1 2.1 8 2.9 16.3 4.5 24.5 0.7 3.6 1.6 7.4 0.5 11.1q-2.6 9.2-5.1 18.4c-2.8 8.4-2.9 17.4-4.1 26.1-0.5 7.8-2.7 15.6-1.5 23.4 4.9 18.5 10.6 36.9 16.4 55.1 1.7 5 1.8 10.4 2.4 15.6 0.8 6 1.4 12 2.1 18 1.6 17.9 5.1 35.5 7.2 53.3 3.6 25.1 6.9 50.2 10.5 75.3 1.5 8.4 1.5 17.1 4.7 25.1 4.4 10.9 8.2 21.9 12.6 32.8 2 4.7 5.1 8.8 7.5 13.3 1.5 2.4 2.7 5.7 5.9 6.4 10.8-1.8 21.9 0.3 32.8 0 11.1-0.2 22.2 1.3 33.3 0.6q32-3.7 63.9-7.4c8.5-1.1 17.1-1.7 25.5-3.5 10.9-2.2 21.9-3.9 32.9-6 4.9-1 10-1.4 14.7-3.4 14-6.5 27.8-13.3 42-19.5 4.2-1.9 8.1-4.5 12.6-5.4 19.5-4.2 38.7-9.2 58.2-13.1-4.5 7.4-10.1 13.9-15.1 20.9-5.7 7.8-11.6 15.6-17.2 23.5-4.1 5.8-9.5 10.3-14.4 15.4-12.5 12.5-25.2 24.9-37.6 37.5-4.8 4.6-9 9.8-13.4 14.7-4.4 5.2-9.4 9.8-13.8 15.1-4.9 5.1-9.3 10.7-14.4 15.6 8.6 6 17.4 11.8 26 17.7 2 1.5 4.3 2.8 6.8 3 7.9 1 15.8 1.9 23.7 3 0.4 0.1 1.1 0.2 1.4 0.2 43.3-32 86.8-63.7 130.3-95.5 5.9-4.6 12.5-8.5 18-13.7 10.3-12.6 20.4-25.4 30.6-38 3.6-4.7 8-8.9 10-14.5 2-5.1 4.6-9.9 6.4-15.1 0.2-3.3-1-6.5-1.5-9.8-1.3-5.4-1.9-11-3.6-16.3-3.8-8.1-9.1-15.5-12.6-23.7-0.3-15.9 0-31.8-0.2-47.8-0.3-7.6 2.7-14.7 4.3-22 2.6-9.8 5.1-19.6 7.8-29.4 1.4-4.2 6-6.1 9-9 10.2-8.4 21.1-16.2 30.2-25.9 6.6-6.7 13.3-13.2 20-19.9 3.6-3.7 5.1-8.9 7.3-13.5 4.2-9.3 8.7-18.4 12.9-27.7 1.8-4.3 2-9 2.8-13.5 1.9-12.7 4.5-25.2 5.9-38-5.6-11.6-10.6-23.5-16.5-34.9-6.6-7-13.9-13.2-20.6-20-1.7-1.4-3.4-3.8-5.9-3-8 1.9-16.2 3.3-24.1 5.8-12.1 5.8-23.9 12.3-35.9 18.3-2.6 1.2-5 2.7-6.9 4.9-6.9 7.8-14.1 15.4-21.2 23.1-3.3 3.6-5 8.4-7.2 12.7-5.4 10.5-10.4 21.2-16.1 31.6-4.7-7.1-8.6-14.7-13-21.9-1.6-2.6-3.6-5.3-3.4-8.5 0-15.1-0.1-30.2 0-45.3 0.2-4.3-1.8-8-3.3-11.9-3.3-8.7-6.8-17.4-10.1-26.1-1.2-2.7-1.8-5.8-3.7-8.1-3.1-2.7-6.7-4.7-10-7.2-9.6-7-19.6-13.5-29.1-20.8 5.8-10.8 11.7-21.6 17.6-32.5 2-3.6 3.7-7.5 6.7-10.5 12.9-12.7 25.6-25.6 38.5-38.4 1.7-1.3 1.5-3.5 1.5-5.5-0.1-12.6 0-25.3 0-38-0.1-3.2 0.3-6.4-0.3-9.6-0.7-2-2.1-3.8-3.2-5.6-5.6-8.7-11.1-17.4-16.5-26.1-1.1-1.5-2-3.7-4.2-3.7-15-1.9-29.9-4.1-44.9-6-6.4-0.8-12.4-3.1-18.6-4.8-12.6-3.8-25.2-7.5-37.7-11.3z"/><path class="c" d="m1222.7 570.5c-0.5 1.8-1 3.7-1 5.7 0.2 16.9 0.2 33.8 0 50.7 0.1 1.6 0.6 3.2 1 4.8 0.6-4.3 0.3-8.7 0.4-13v-36.2c0-4 0.2-8.1-0.4-12z"/><path class="d" d="m1126.1 1060c-7.3-5.7-14.7-11.3-21.9-17.1 3.5 8.2 8.8 15.6 12.6 23.7 1.7 5.3 2.3 10.9 3.6 16.3 0.5 3.3 1.7 6.5 1.5 9.8-1.8 5.2-4.4 10-6.4 15.1-2 5.6-6.4 9.8-10 14.5-10.2 12.6-20.3 25.4-30.6 38-5.5 5.2-12.1 9.1-18 13.7-43.5 31.8-87 63.5-130.3 95.5 18.3 7.1 36.7 14.1 55.1 20.9 4.7 1.9 7.9 6 11.9 8.9 10.1 8.8 20.5 17.2 30.4 26.2-5.3 3.8-11.4 6.1-17.1 9.3-9.3 4.9-18.6 9.8-27.9 14.6-4 2.2-7.2 5.5-10.8 8.3-5.9 4.6-11.6 9.4-17.5 14-2.3 1.6-1.1 4.6-1 6.9q2.3 15.1 3.9 30.4c4.2 22.2 8.8 44.3 13.1 66.5 1.5 8.7 4.1 17.3 4.4 26.2 0.5 7 1.8 13.9 1.9 20.8 0.2 8.8 1.9 17.5 2.2 26.3 0.9 7.8 2.1 15.7 1.7 23.7 0.3 0.1 0.9 0.3 1.2 0.4-0.4 25.8 0.9 51.4 0.7 77.1-0.2 8.9-2.2 17.5-2.4 26.4-1.4 12.7-2.9 25.5-4.2 38.2-1.9 11.8-1 23.8-1.6 35.6-1 7.3-0.5 14.7-1 22-0.8 13-0.5 26-0.7 39-0.8-3.6-0.4-7.4-0.9-11.1-0.1 14.6-0.1 29.2-0.2 43.8 2.4-8.4 3.9-17 6.2-25.4 3.2-12.1 5.5-24.3 9.2-36.2 23.3-80.4 46.7-160.7 70-241.1 2.8-9.2 4-18.8 6.2-28.1 8.3-42.3 16.9-84.5 25.3-126.8 1.8-8.3 2.7-16.8 5.9-24.7 12.4-36.8 24.6-73.6 37.2-110.3 8.8-20.3 18.6-40.1 27.5-60.4 0.9-2.1 1.5-4.4 1.5-6.7q-0.1-18.1-0.1-36.2c0-2.4-0.2-4.9-1.1-7.1-3.7-10.8-7.4-21.5-11.4-32.1-0.7-1.7-0.7-3.5-0.6-5.2-1.6-1.9-2.3-4.2-3.1-6.4q-6-16.3-11.6-32.8c-0.6-1.6-1.3-3.3-2.8-4.4z"/><path class="e" d="m993.6 1102.9c-19.5 3.9-38.7 8.9-58.2 13.1-4.5 0.9-8.4 3.5-12.6 5.4-14.2 6.2-28 13-42 19.5-4.7 2-9.8 2.4-14.7 3.4-11 2.1-22 3.8-32.9 6-8.4 1.8-17 2.4-25.5 3.5q-31.9 3.7-63.9 7.4c-11.1 0.7-22.1-0.8-33.3-0.6-10.9 0.3-22-1.8-32.8 0 9 2.7 18 5.2 27 8 9.7 2.6 19.2 5.6 28.8 8.3 15.5 1.7 31.1 2.4 46.7 3.8 1.4 0.1 2.5 0.9 3.6 1.6 27.9 21.2 55.9 42.3 83.9 63.3 5.1-4.9 9.5-10.5 14.4-15.6 4.4-5.3 9.4-9.9 13.8-15.1 4.4-4.9 8.6-10.1 13.4-14.7 12.4-12.6 25.1-25 37.6-37.5 4.9-5 10.3-9.6 14.4-15.4 5.6-7.9 11.5-15.7 17.2-23.5 5-7 10.6-13.5 15.1-20.9z"/><path class="f" d="m1162.3 1116.9c-6.3-4.3-12.2-9.2-18.7-13.3-0.1 1.7-0.1 3.5 0.6 5.2 4 10.6 7.7 21.3 11.4 32.1 0.9 2.2 1.1 4.7 1.1 7.1q0 18.1 0 36.2c0.1 2.3-0.5 4.6-1.5 6.7-8.8 20.3-18.6 40.1-27.4 60.4-12.6 36.7-24.8 73.5-37.2 110.3-3.2 7.9-4.1 16.4-5.9 24.7-8.4 42.3-17 84.5-25.3 126.8-2.2 9.3-3.4 18.9-6.2 28.1-23.3 80.4-46.7 160.7-70 241.1-3.7 11.9-6 24.1-9.2 36.2-2.3 8.4-3.8 17-6.2 25.4-1.5 4.4-1.8 9.1-3.4 13.5-1.5 4.3-1.9 8.9-3 13.3-1.8 5.1-2.4 10.5-3.8 15.7-1 5-2.9 9.8-3.1 14.9q-0.5-0.7-1.1-1.3c-0.2 2.8-0.5 5.7-0.6 8.6q-0.6-0.7-1.1-1.4c-0.4 4.2-1.8 8.3-2.3 12.4h161.7c19.9-30.9 39.7-61.8 59.5-92.7 18.3-28.1 35.1-57.1 52.7-85.7 25-41.3 50.2-82.5 75.2-123.9 35.7-61.4 71-123.1 106.7-184.5 9.7-17.1 19.7-33.9 29.8-50.8 2.8-5 6.1-9.7 8.5-14.9-6.4-0.5-12.8-0.3-19.2-0.7-6.3-0.2-12.7-0.9-19 0.4q-28.1 4.9-56.1 10c-1.8 0.2-4 0.7-5-1.2-14.2-21-28.6-41.9-43-62.8-4.1-5.9-6.7-12.6-9.8-19.1-10.3-22.6-20.6-45.1-30.9-67.6-3.5-7-12-9.7-15.2-16.8-6.4-3.2-11.1-8.7-16.5-13.2-12.5-11.3-25.3-22.3-37.6-33.8-7-10.7-13-21.9-19.7-32.8-2.8-4.3-4.6-9.7-9.2-12.6z"/><path class="f" d="m734.5 1176.9c-9.6-2.7-19.2-5.7-28.8-8.3-11.9 12.4-24.3 24.4-36.5 36.7-4.9 4.7-9.3 9.8-14.6 14.1-3.9 6.3-8.9 11.7-13.4 17.6-7 8.4-13.6 17.1-20.6 25.5-10.4 11.9-21.1 23.5-31.5 35.4-10 11.4-20.5 22.4-30.2 34-13.1 17.4-26.4 34.5-39.4 51.9-23.8-7.9-47.4-16.5-71.2-24.3 0.3 8.3 1.8 16.4 2.6 24.6 1.7 13.5 3.2 27.1 4.9 40.6 1 6.1 3.8 11.7 5.7 17.6 12.2 35.1 24.9 70 36.9 105.2 22.6 66.6 45.5 133.1 68.1 199.7 10.1 29.6 21.6 58.6 32.3 88 10.5 28.1 21.1 56.3 31.5 84.4h127.6c-0.2-4.8-0.7-9.6-0.6-14.5-0.4 1.6-0.8 3.1-1.1 4.6 0-4.9 0.1-9.9-1-14.8-1.4-6-0.6-12.2-2-18.1-1-4.6-0.6-9.3-1.6-13.9-1.4-6.5-1-13.3-1.8-19.9-1.3-7.9-0.5-15.8-0.7-23.8 0-16.4-0.1-32.9 0.1-49.3-3.3-22.4-6-44.9-8.9-67.3-4.5-50.3-8.8-100.7-13.3-151.1-0.4-7.9-1.8-15.7-1.7-23.6q0-58.3-0.1-116.7c0.1-4.9-0.2-9.8 0.5-14.7 3.5-22.9 6.3-45.9 9.8-68.8 1-7.2-0.8-14.3-1.3-21.4-3-28.9-5.5-57.9-8-86.9-0.3-3.8-1.3-7.8-0.1-11.5 2.7-8.8 5.6-17.4 8.4-26.1 0.6-1.6 0.3-3.3 0-4.9z"/><path class="d" d="m781.2 1180.7c-15.5-1.4-31.1-2.1-46.6-3.8 0.3 1.6 0.6 3.3-0.1 4.9-2.7 8.7-5.6 17.3-8.3 26.1-1.3 3.7-0.2 7.7 0.1 11.5 2.5 29 5 58 8 86.9 0.4 7.1 2.3 14.2 1.3 21.4-3.6 22.9-6.4 45.9-9.8 68.9-0.7 4.8-0.5 9.7-0.5 14.7q0 58.3 0 116.7c0 7.8 1.4 15.7 1.8 23.5 4.5 50.4 8.7 100.8 13.2 151.1 3 22.4 5.6 44.9 8.9 67.3 8.6-30.2 15.6-60.7 23.7-91 2.4-9.4 4.6-19 8-28.1 8.4-26.5 17.3-52.8 25.9-79.2 2.1-7 6-13.1 9.3-19.6 8.7-16.9 17.4-33.8 26.4-50.6 6.8-11.8 13.7-23.6 20.8-35.3 1.9-3.3 4.6-6.5 4.9-10.5 1.4-12 2.6-24 4.5-35.9 0.6-3.7 0.6-7.5 1-11.2 0.3-3.9 1.4-7.7 0.7-11.6-1.5-10.5-2.7-21.1-3.9-31.7-0.3-6.4-4.6-11.4-7.4-16.9-4.1-7-7.9-14.3-12.1-21.4-4.9-6.9-11.6-12.3-16.4-19.4 6.1-5.8 12.1-11.6 18.3-17.3 2.5-2.4 6.1-3.2 9.3-4.2q12.3-3.8 24.4-7.9c11-2.6 22.1-4.7 33.2-7 1.8-0.5 3.6-1.2 5.4-1.8-7.8-1-15.7-2-23.6-3-2.6-0.2-4.8-1.5-6.9-2.9-8.6-6-17.4-11.8-26-17.7-28-21.1-55.9-42.2-83.8-63.3-1.1-0.8-2.3-1.6-3.7-1.7z"/><path class="g" d="m1290.3 1234c-15.8-8-31.1-17-47-24.7 3.2 7.1 11.7 9.8 15.2 16.7 10.3 22.6 20.7 45.1 30.9 67.7 3.1 6.5 5.7 13.2 9.8 19.1 14.4 20.9 28.8 41.8 43 62.8 1 1.9 3.3 1.4 5 1.2q28-5.1 56.1-10c6.3-1.3 12.7-0.6 19-0.4 6.4 0.4 12.8 0.2 19.2 0.7-2.4 5.2-5.7 9.9-8.5 14.9-10.1 16.9-20.1 33.7-29.8 50.8-35.7 61.4-71 123.1-106.7 184.5-24.9 41.4-50.2 82.6-75.2 123.9-17.6 28.6-34.4 57.6-52.7 85.7-19.8 30.9-39.6 61.8-59.5 92.7h368.4c5.8-17.2 11.2-34.5 17-51.7 5.5-18.1 10.9-36.2 16.3-54.3 6-19.7 12.8-39.1 19.1-58.7 3.6-10.5 6.6-21.2 10.8-31.5-2.7 25.9-6 51.8-8.9 77.7-0.6 7 0.9 13.9 1.6 20.9 0.8 9 2.1 18 2.9 27.1 0.4 4.4-1.3 8.6-2.4 12.9-2 8.1-4.3 16.2-6.4 24.3-0.9 3.6-2.7 7.3-1.4 11.1 2.2 7.4 4.6 14.8 6.8 22.2h262c-1-8-1.2-16.1-2.1-24.2-1.4-19.6-3.6-39.3-4.8-59 0.9-9.3 7.1-17.5 6.7-27.1q-0.1-16.8 0-33.5c0.1-4.5-1.5-8.9-2.7-13.2-2.6-8.9-4.8-18-7.6-26.9-2.8-6.5-6.7-12.5-10-18.8-4.3-8.3-9.4-16.2-13.4-24.7-3.2-15.8-2.7-32.3-7.3-47.9-2.7-11.1-5.5-22.1-8.2-33.2-0.9-3.8-3.3-6.9-5.3-10.2-3.3-5.4-6.5-10.9-9.8-16.4-2.6-4.8-6.2-9.1-8.2-14.2 1.1-11.2 3.6-22.2 4.8-33.4 0-6.9-0.7-13.9-1-20.8-0.2-3.9-0.2-7.9-1.5-11.6-11.4-33.3-22.9-66.6-34.1-99.9-0.7-2.1-2.1-3.8-3.7-5.3-8.9-8.6-17.8-17.2-26.6-25.8-2.7-3.1-7.1-3-10.8-3.8-8.6-1.8-17.5-2.7-25.8-5.8-28.4-9.6-56.8-19.3-85.2-28.8-14.5-4.7-28.5-10.6-42.8-15.9-20.9-8-41.9-16-62.8-24.1-13.7-5.3-27.6-10.2-41.1-15.9-33.8-15.1-67.6-30.1-101.3-45.2z"/><path class="g" d="m654.6 1219.4c-3.8 0.8-7.5 2.1-11.1 3.5-35.9 12.3-71.7 24.9-107.6 37.2-16.9 6.2-34.2 10.9-51.3 16.5-38.6 12-77.3 24-115.9 36.1-16.1 4.8-31.9 10.7-48.3 14.1q-30.1 7.1-60.1 14.2c-2 0.3-3.4 1.9-4.7 3.3-9.3 10.7-18.5 21.3-27.9 31.8-2.2 2.5-3.6 5.6-5 8.6-8 16.4-16 32.8-24 49.2-2.1 4.9-5.2 9.4-6.1 14.8-4.3 21.6-8.7 43.2-13 64.8-6.4 31.5-11.6 63.2-17.4 94.8-4.6 25.8-9.4 51.6-13.9 77.4-0.9 5.3-3 10.3-4.6 15.4-7.4 23-15 45.9-22.4 68.9-1.3 3.9-0.4 8.1-0.3 12.2 1.2 21.7 3 43.3 3.9 65 1.7 24.1 3.1 48.3 4.5 72.4h146.7c1.6-14.2 6.5-28 5.7-42.5q0-46.1 0-92.2c0-7.3-0.4-14.6 0.8-21.8 3.4-21.7 6.2-43.5 9.5-65.2 2 6.1 2.5 12.5 3.6 18.7 4.7 29.6 10 59.2 14.5 88.8 2.3 15.1 4.6 30.3 7.1 45.4q0.9 5.4 0.9 11c-0.1 19.2 0 38.5-0.1 57.8h312.2c-10.4-28.1-21-56.3-31.5-84.4-10.7-29.4-22.2-58.4-32.3-88-22.6-66.6-45.5-133.1-68.1-199.7-12-35.2-24.7-70.1-36.9-105.2-1.9-5.9-4.7-11.5-5.7-17.6-1.7-13.5-3.2-27.1-4.9-40.6-0.8-8.2-2.3-16.3-2.6-24.6 23.8 7.8 47.4 16.4 71.2 24.3 13-17.4 26.3-34.5 39.4-51.9 9.7-11.6 20.2-22.6 30.2-34 10.5-11.9 21.2-23.5 31.5-35.4 7-8.4 13.6-17.1 20.7-25.5 4.4-5.8 9.4-11.3 13.3-17.6zm-248.1 555.7c16.1 4.9 31.5 12 47.2 17.9 24.3 10.1 49.1 18.7 73.8 27.6 13.4 4.3 25.3 12 38.1 17.9 0.4 7.8 0.1 15.6 0.2 23.4-8.1-0.4-16.1-2.2-24.2-3.2-18.2-2.9-36.6-5.4-54.8-8.5-21.5-7-43.1-14.1-64.7-21.1-4.9-1.9-9.1-5.4-13.6-8-13.1-8.4-26.1-16.8-39.2-25.1-1.7-1.2-4.9-2-4.1-4.7 1.5-9.4 3.5-18.7 4.7-28.1 12.3 3.8 24.4 8 36.6 11.9z"/><path class="h" d="m926.6 1269.5c-0.3 0-1-0.1-1.4-0.2-1.8 0.6-3.6 1.3-5.5 1.8-11 2.3-22.1 4.4-33.1 7q-12.1 4.1-24.4 7.9c-3.2 1-6.8 1.8-9.4 4.2-6.1 5.7-12.1 11.5-18.2 17.3 4.7 7 11.5 12.5 16.4 19.4 4.1 7.1 8 14.4 12.1 21.4 2.8 5.5 7 10.5 7.4 16.9 1.2 10.6 2.4 21.2 3.9 31.7 0.7 3.9-0.4 7.7-0.8 11.6-0.3 3.7-0.3 7.5-0.9 11.2-1.9 11.9-3.2 23.9-4.5 35.9-0.3 4-3 7.2-5 10.5-7 11.7-13.9 23.5-20.8 35.3-8.9 16.8-17.6 33.7-26.3 50.6-3.3 6.5-7.2 12.6-9.4 19.6-8.6 26.4-17.4 52.7-25.8 79.2-3.5 9.1-5.6 18.6-8 28.1-8.1 30.3-15.1 60.8-23.7 91-0.1 16.4 0 32.9 0 49.3 0.2 8-0.6 15.9 0.6 23.8 0.8 6.6 0.4 13.4 1.9 19.9 1 4.6 0.5 9.3 1.6 13.9 1.3 5.9 0.6 12.1 1.9 18.1 1.2 4.9 1.1 9.9 1 14.9 0.4-1.6 0.8-3.1 1.1-4.7 0 4.9 0.4 9.7 0.6 14.5h191.5c0.5-4.1 1.9-8.2 2.3-12.4q0.6 0.7 1.1 1.4c0.1-2.9 0.4-5.8 0.6-8.6q0.6 0.6 1.1 1.3c0.2-5.1 2.1-9.9 3.2-14.9 1.3-5.2 1.9-10.6 3.7-15.7 1.1-4.4 1.5-9 3-13.3 1.6-4.4 1.9-9.1 3.4-13.5 0.1-14.6 0.1-29.2 0.2-43.8 0.5 3.7 0.1 7.5 0.9 11.1 0.2-13-0.1-26 0.7-39 0.5-7.3 0-14.7 1-22 0.6-11.8-0.3-23.8 1.6-35.6 1.3-12.7 2.8-25.5 4.2-38.2 0.2-8.9 2.2-17.5 2.4-26.3 0.2-25.8-1.1-51.4-0.7-77.2-0.3-0.1-0.9-0.3-1.2-0.4 0.4-7.9-0.8-15.9-1.7-23.7-0.3-8.8-2-17.5-2.2-26.3-0.1-6.9-1.4-13.8-1.9-20.8-0.3-8.9-2.9-17.5-4.4-26.2-4.3-22.2-8.9-44.3-13.1-66.5q-1.6-15.3-3.9-30.4c-0.1-2.3-1.3-5.3 1-6.8 5.9-4.7 11.6-9.5 17.5-14.1 3.6-2.8 6.8-6.1 10.8-8.2 9.3-4.9 18.6-9.8 27.9-14.7 5.7-3.2 11.8-5.5 17.1-9.3-9.9-9-20.3-17.4-30.4-26.2-4-2.9-7.2-7-11.9-8.9-18.4-6.8-36.8-13.8-55.1-20.9z"/><path class="f" d="m295.8 1716.6c-1.2-6.3-1.6-12.7-3.6-18.7-3.3 21.7-6.2 43.5-9.5 65.2-1.2 7.2-0.8 14.5-0.9 21.7q0 46.2 0 92.3c0.8 14.4-4 28.3-5.6 42.5h42c0.1-19.3-0.1-38.6 0-57.9q0.1-5.5-0.8-10.9c-2.5-15.2-4.8-30.3-7.2-45.4-4.4-29.7-9.7-59.2-14.4-88.8z"/><path class="f" d="m1540.7 1723.4c-4.2 10.3-7.2 21-10.8 31.5-6.3 19.6-13.1 39-19.1 58.7-5.4 18.1-10.8 36.2-16.3 54.3-5.8 17.2-11.2 34.5-17 51.7h55.4c-2.2-7.4-4.6-14.8-6.8-22.2-1.2-3.8 0.5-7.5 1.4-11.1 2.1-8.1 4.4-16.2 6.4-24.4 1.1-4.2 2.8-8.4 2.4-12.8-0.8-9.1-2.1-18.1-2.9-27.1-0.7-7-2.2-13.9-1.6-20.9 2.9-25.9 6.2-51.8 8.9-77.7z"/><path class="f" d="m406.6 1775.1c-12.2-3.9-24.3-8.1-36.6-11.8-1.3 9.4-3.3 18.6-4.7 28-0.8 2.7 2.4 3.5 4 4.8 13.1 8.3 26.2 16.7 39.2 25 4.6 2.7 8.7 6.1 13.7 8 21.6 7.1 43.2 14.1 64.7 21.2 18.2 3.1 36.5 5.5 54.8 8.4 8.1 1 16 2.9 24.2 3.2-0.1-7.8 0.1-15.6-0.2-23.3-12.8-5.9-24.7-13.6-38.1-18-24.7-8.8-49.6-17.5-73.8-27.5-15.8-6-31.1-13-47.2-18z"/></svg>